<svg width="18" height="22" viewBox="0 0 18 22" fill="none" xmlns="http://www.w3.org/2000/svg">
  <path fill-rule="evenodd" clip-rule="evenodd" d="M6.375 0.5C5.34 0.5 4.5 1.339 4.5 2.375V15.125C4.5 15.6223 4.69754 16.0992 5.04917 16.4508C5.4008 16.8025 5.87772 17 6.375 17H16.125C17.16 17 18 16.16 18 15.125V11.75C18 10.7554 17.6049 9.80161 16.9017 9.09835C16.1984 8.39509 15.2446 8 14.25 8H12.375C11.34 8 10.5 7.161 10.5 6.125V4.25C10.5 3.25544 10.1049 2.30161 9.40165 1.59835C8.69839 0.895088 7.74456 0.5 6.75 0.5H6.375ZM10.721 0.81601C11.5475 1.76897 12.0018 2.98856 12 4.25001V6.12501C12 6.22447 12.0395 6.31985 12.1098 6.39017C12.1802 6.4605 12.2755 6.50001 12.375 6.50001H14.25C15.5115 6.49826 16.731 6.95249 17.684 7.77901C17.244 6.10572 16.3675 4.57931 15.1441 3.3559C13.9207 2.13248 12.3943 1.25597 10.721 0.81601ZM3 5.00001H1.875C0.84 5.00001 0 5.83901 0 6.87501V19.625C0 20.1223 0.197544 20.5992 0.549175 20.9508C0.900805 21.3025 1.37772 21.5 1.875 21.5H11.625C12.66 21.5 13.5 20.66 13.5 19.625V18.5H6.375C5.47989 18.5 4.62145 18.1444 3.98851 17.5115C3.35558 16.8786 3 16.0201 3 15.125V5.00001Z" fill="#222222"/>
</svg>
