<svg width="146" height="48" viewBox="0 0 146 48" fill="none" xmlns="http://www.w3.org/2000/svg">
<path d="M58.08 28.488H59.712L60.672 24.384H59.016L59.208 23.616H60.864L61.92 19.08H59.208L59.376 18.288H62.088L63.216 13.392H60.504L60.72 12.504H55.08L54.864 13.392H52.128L51 18.288H53.736L53.568 19.08H50.664L49.632 23.616H53.856L52.56 29.256H51.936L53.088 24.24H49.416L46.92 34.992H49.656L50.952 33.48L52.248 34.944H69.504L70.824 29.256H57.888L58.08 28.488ZM63.912 12.888L62.832 17.568H63.768L62.472 19.56L62.016 21.48H66.312L67.896 17.568H68.616L68.328 18.864L67.584 19.344L67.104 21.48H72.384L74.376 12.888H63.912ZM60.336 28.68H70.632L72.168 22.056H61.872L60.336 28.68ZM65.568 25.032H66.912L66.744 25.8H65.376L65.568 25.032ZM70.776 34.848H78.192L83.736 27.192H84.576L87.528 34.848H93.72L94.848 29.904L89.496 20.808L91.344 12.792H82.464L80.616 20.808L71.928 29.904L70.776 34.848ZM118.152 29.112L119.76 22.152H107.016L107.136 21.672H109.344L109.776 19.752H107.064L107.184 19.272H109.824L110.184 17.688H107.544L107.664 17.208H110.376L110.808 15.336H108.096L108.192 14.856H110.856L111.216 13.2H108.6L108.744 12.528H102.864L102.72 13.2H100.224L99.84 14.856H102.312L102.216 15.336H99.384L98.952 17.208H101.784L101.664 17.688H99.072L98.688 19.272H101.304L101.184 19.752H98.376L97.92 21.672H99.96L98.16 23.208L96.792 29.112H103.584L103.464 29.64H96.432L95.28 34.632H101.352L101.736 32.976H102.696L102.24 34.92H109.8L110.256 32.976H111.168L110.784 34.632H115.992L117.456 33.24L118.32 29.64H111.024L111.144 29.112H118.152ZM122.544 13.296H121.824L121.968 12.624H116.136L115.992 13.296H111.72L110.784 17.328H115.056L114.72 18.744L114.096 19.2L113.52 21.672H119.88L120.888 17.328H121.608L122.544 13.296ZM110.856 21.672H113.04L113.928 17.808H110.688L110.064 20.592L110.856 21.672ZM113.184 24.408L113.064 24.912H103.704L103.824 24.408H113.184ZM103.344 26.424H112.704L112.584 26.928H103.224L103.344 26.424ZM142.56 18.192L145.128 16.368L145.872 13.08H124.704L123.528 18.192H129.48L129.24 19.176H122.856L121.728 24.048H128.136L127.896 25.056H121.416L120.216 30.288H126.696L126.552 30.888L123.864 32.136L123.216 34.872H134.64L135.696 30.288H142.368L143.568 25.056H136.896L137.136 24.048H143.736L144.864 19.176H138.24L138.48 18.192H142.56Z" fill="#222222"/>
<path d="M58.08 28.488V28.338H57.9629L57.9345 28.4516L58.08 28.488ZM59.712 28.488V28.638H59.831L59.8581 28.5222L59.712 28.488ZM60.672 24.384L60.8181 24.4182L60.8611 24.234H60.672V24.384ZM59.016 24.384L58.8705 24.3476L58.8239 24.534H59.016V24.384ZM59.208 23.616V23.466H59.0909L59.0625 23.5796L59.208 23.616ZM60.864 23.616V23.766H60.9831L61.0101 23.65L60.864 23.616ZM61.92 19.08L62.0661 19.114L62.1089 18.93H61.92V19.08ZM59.208 19.08L59.0613 19.0489L59.0228 19.23H59.208V19.08ZM59.376 18.288V18.138H59.2545L59.2293 18.2569L59.376 18.288ZM62.088 18.288V18.438H62.2074L62.2342 18.3217L62.088 18.288ZM63.216 13.392L63.3622 13.4257L63.4045 13.242H63.216V13.392ZM60.504 13.392L60.3583 13.3565L60.3131 13.542H60.504V13.392ZM60.72 12.504L60.8658 12.5395L60.9109 12.354H60.72V12.504ZM55.08 12.504V12.354H54.9621L54.9343 12.4685L55.08 12.504ZM54.864 13.392V13.542H54.9819L55.0098 13.4275L54.864 13.392ZM52.128 13.392V13.242H52.0086L51.9818 13.3583L52.128 13.392ZM51 18.288L50.8538 18.2543L50.8115 18.438H51V18.288ZM53.736 18.288L53.8827 18.3191L53.9212 18.138H53.736V18.288ZM53.568 19.08V19.23H53.6895L53.7147 19.1111L53.568 19.08ZM50.664 19.08V18.93H50.5443L50.5177 19.0467L50.664 19.08ZM49.632 23.616L49.4857 23.5827L49.444 23.766H49.632V23.616ZM53.856 23.616L54.0022 23.6496L54.0444 23.466H53.856V23.616ZM52.56 29.256V29.406H52.6794L52.7062 29.2896L52.56 29.256ZM51.936 29.256L51.7898 29.2224L51.7476 29.406H51.936V29.256ZM53.088 24.24L53.2342 24.2736L53.2764 24.09H53.088V24.24ZM49.416 24.24V24.09H49.2968L49.2699 24.2061L49.416 24.24ZM46.92 34.992L46.7739 34.9581L46.7312 35.142H46.92V34.992ZM49.656 34.992V35.142H49.725L49.7699 35.0896L49.656 34.992ZM50.952 33.48L51.0643 33.3806L50.9502 33.2516L50.8381 33.3824L50.952 33.48ZM52.248 34.944L52.1357 35.0434L52.1805 35.094H52.248V34.944ZM69.504 34.944V35.094H69.6232L69.6501 34.9779L69.504 34.944ZM70.824 29.256L70.9701 29.2899L71.0128 29.106H70.824V29.256ZM57.888 29.256L57.7425 29.2196L57.6959 29.406H57.888V29.256ZM63.912 12.888V12.738H63.7927L63.7658 12.8543L63.912 12.888ZM62.832 17.568L62.6858 17.5343L62.6434 17.718H62.832V17.568ZM63.768 17.568L63.8937 17.6498L64.0445 17.418H63.768V17.568ZM62.472 19.56L62.3463 19.4782L62.3321 19.5L62.3261 19.5253L62.472 19.56ZM62.016 21.48L61.8701 21.4453L61.8262 21.63H62.016V21.48ZM66.312 21.48V21.63H66.4131L66.451 21.5363L66.312 21.48ZM67.896 17.568V17.418H67.7949L67.757 17.5117L67.896 17.568ZM68.616 17.568L68.7624 17.6005L68.803 17.418H68.616V17.568ZM68.328 18.864L68.4093 18.99L68.4611 18.9567L68.4744 18.8965L68.328 18.864ZM67.584 19.344L67.5027 19.218L67.4511 19.2512L67.4377 19.3111L67.584 19.344ZM67.104 21.48L66.9577 21.4471L66.9166 21.63H67.104V21.48ZM72.384 21.48V21.63H72.5032L72.5301 21.5139L72.384 21.48ZM74.376 12.888L74.5221 12.9219L74.5648 12.738H74.376V12.888ZM60.336 28.68L60.1899 28.6461L60.1472 28.83H60.336V28.68ZM70.632 28.68V28.83H70.7512L70.7781 28.7139L70.632 28.68ZM72.168 22.056L72.3141 22.0899L72.3568 21.906H72.168V22.056ZM61.872 22.056V21.906H61.7528L61.7259 22.0221L61.872 22.056ZM65.568 25.032V24.882H65.4509L65.4225 24.9956L65.568 25.032ZM66.912 25.032L67.0585 25.0641L67.0984 24.882H66.912V25.032ZM66.744 25.8V25.95H66.8647L66.8905 25.8321L66.744 25.8ZM65.376 25.8L65.2305 25.7636L65.1839 25.95H65.376V25.8ZM58.08 28.638H59.712V28.338H58.08V28.638ZM59.8581 28.5222L60.8181 24.4182L60.5259 24.3498L59.5659 28.4538L59.8581 28.5222ZM60.672 24.234H59.016V24.534H60.672V24.234ZM59.1615 24.4204L59.3535 23.6524L59.0625 23.5796L58.8705 24.3476L59.1615 24.4204ZM59.208 23.766H60.864V23.466H59.208V23.766ZM61.0101 23.65L62.0661 19.114L61.7739 19.046L60.7179 23.582L61.0101 23.65ZM61.92 18.93H59.208V19.23H61.92V18.93ZM59.3547 19.1111L59.5227 18.3191L59.2293 18.2569L59.0613 19.0489L59.3547 19.1111ZM59.376 18.438H62.088V18.138H59.376V18.438ZM62.2342 18.3217L63.3622 13.4257L63.0698 13.3583L61.9418 18.2543L62.2342 18.3217ZM63.216 13.242H60.504V13.542H63.216V13.242ZM60.6498 13.4275L60.8658 12.5395L60.5743 12.4685L60.3583 13.3565L60.6498 13.4275ZM60.72 12.354H55.08V12.654H60.72V12.354ZM54.9343 12.4685L54.7183 13.3565L55.0098 13.4275L55.2258 12.5395L54.9343 12.4685ZM54.864 13.242H52.128V13.542H54.864V13.242ZM51.9818 13.3583L50.8538 18.2543L51.1462 18.3217L52.2742 13.4257L51.9818 13.3583ZM51 18.438H53.736V18.138H51V18.438ZM53.5893 18.2569L53.4213 19.0489L53.7147 19.1111L53.8827 18.3191L53.5893 18.2569ZM53.568 18.93H50.664V19.23H53.568V18.93ZM50.5177 19.0467L49.4857 23.5827L49.7783 23.6493L50.8103 19.1133L50.5177 19.0467ZM49.632 23.766H53.856V23.466H49.632V23.766ZM53.7098 23.5824L52.4138 29.2224L52.7062 29.2896L54.0022 23.6496L53.7098 23.5824ZM52.56 29.106H51.936V29.406H52.56V29.106ZM52.0822 29.2896L53.2342 24.2736L52.9418 24.2064L51.7898 29.2224L52.0822 29.2896ZM53.088 24.09H49.416V24.39H53.088V24.09ZM49.2699 24.2061L46.7739 34.9581L47.0661 35.0259L49.5621 24.2739L49.2699 24.2061ZM46.92 35.142H49.656V34.842H46.92V35.142ZM49.7699 35.0896L51.0659 33.5776L50.8381 33.3824L49.5421 34.8944L49.7699 35.0896ZM50.8397 33.5794L52.1357 35.0434L52.3603 34.8446L51.0643 33.3806L50.8397 33.5794ZM52.248 35.094H69.504V34.794H52.248V35.094ZM69.6501 34.9779L70.9701 29.2899L70.6779 29.2221L69.3579 34.9101L69.6501 34.9779ZM70.824 29.106H57.888V29.406H70.824V29.106ZM58.0335 29.2924L58.2255 28.5244L57.9345 28.4516L57.7425 29.2196L58.0335 29.2924ZM63.7658 12.8543L62.6858 17.5343L62.9782 17.6017L64.0582 12.9217L63.7658 12.8543ZM62.832 17.718H63.768V17.418H62.832V17.718ZM63.6423 17.4862L62.3463 19.4782L62.5977 19.6418L63.8937 17.6498L63.6423 17.4862ZM62.3261 19.5253L61.8701 21.4453L62.1619 21.5147L62.6179 19.5947L62.3261 19.5253ZM62.016 21.63H66.312V21.33H62.016V21.63ZM66.451 21.5363L68.035 17.6243L67.757 17.5117L66.173 21.4237L66.451 21.5363ZM67.896 17.718H68.616V17.418H67.896V17.718ZM68.4696 17.5355L68.1816 18.8315L68.4744 18.8965L68.7624 17.6005L68.4696 17.5355ZM68.2467 18.738L67.5027 19.218L67.6653 19.47L68.4093 18.99L68.2467 18.738ZM67.4377 19.3111L66.9577 21.4471L67.2504 21.5129L67.7304 19.3769L67.4377 19.3111ZM67.104 21.63H72.384V21.33H67.104V21.63ZM72.5301 21.5139L74.5221 12.9219L74.2299 12.8541L72.2379 21.4461L72.5301 21.5139ZM74.376 12.738H63.912V13.038H74.376V12.738ZM60.336 28.83H70.632V28.53H60.336V28.83ZM70.7781 28.7139L72.3141 22.0899L72.0219 22.0221L70.4859 28.6461L70.7781 28.7139ZM72.168 21.906H61.872V22.206H72.168V21.906ZM61.7259 22.0221L60.1899 28.6461L60.4821 28.7139L62.0181 22.0899L61.7259 22.0221ZM65.568 25.182H66.912V24.882H65.568V25.182ZM66.7655 24.9999L66.5975 25.7679L66.8905 25.8321L67.0585 25.0641L66.7655 24.9999ZM66.744 25.65H65.376V25.95H66.744V25.65ZM65.5215 25.8364L65.7135 25.0684L65.4225 24.9956L65.2305 25.7636L65.5215 25.8364ZM70.776 34.848L70.6299 34.814L70.587 34.998H70.776V34.848ZM78.192 34.848V34.998H78.2686L78.3135 34.936L78.192 34.848ZM83.736 27.192V27.042H83.6594L83.6145 27.104L83.736 27.192ZM84.576 27.192L84.716 27.138L84.6789 27.042H84.576V27.192ZM87.528 34.848L87.388 34.902L87.4251 34.998H87.528V34.848ZM93.72 34.848V34.998H93.8396L93.8662 34.8814L93.72 34.848ZM94.848 29.904L94.9942 29.9374L95.0075 29.8793L94.9773 29.8279L94.848 29.904ZM89.496 20.808L89.3498 20.7743L89.3364 20.8325L89.3667 20.8841L89.496 20.808ZM91.344 12.792L91.4902 12.8257L91.5325 12.642H91.344V12.792ZM82.464 12.792V12.642H82.3446L82.3178 12.7583L82.464 12.792ZM80.616 20.808L80.7245 20.9116L80.7529 20.8818L80.7622 20.8417L80.616 20.808ZM71.928 29.904L71.8195 29.8004L71.7912 29.83L71.7819 29.87L71.928 29.904ZM70.776 34.998H78.192V34.698H70.776V34.998ZM78.3135 34.936L83.8575 27.28L83.6145 27.104L78.0705 34.76L78.3135 34.936ZM83.736 27.342H84.576V27.042H83.736V27.342ZM84.436 27.246L87.388 34.902L87.668 34.794L84.716 27.138L84.436 27.246ZM87.528 34.998H93.72V34.698H87.528V34.998ZM93.8662 34.8814L94.9942 29.9374L94.7018 29.8706L93.5738 34.8146L93.8662 34.8814ZM94.9773 29.8279L89.6253 20.7319L89.3667 20.8841L94.7187 29.9801L94.9773 29.8279ZM89.6422 20.8417L91.4902 12.8257L91.1978 12.7583L89.3498 20.7743L89.6422 20.8417ZM91.344 12.642H82.464V12.942H91.344V12.642ZM82.3178 12.7583L80.4698 20.7743L80.7622 20.8417L82.6102 12.8257L82.3178 12.7583ZM80.5075 20.7044L71.8195 29.8004L72.0365 30.0076L80.7245 20.9116L80.5075 20.7044ZM71.7819 29.87L70.6299 34.814L70.9221 34.882L72.0741 29.938L71.7819 29.87ZM118.152 29.112V29.262H118.271L118.298 29.1458L118.152 29.112ZM119.76 22.152L119.906 22.1858L119.949 22.002H119.76V22.152ZM107.016 22.152L106.87 22.1156L106.824 22.302H107.016V22.152ZM107.136 21.672V21.522H107.019L106.99 21.6356L107.136 21.672ZM109.344 21.672V21.822H109.464L109.49 21.7049L109.344 21.672ZM109.776 19.752L109.922 19.7849L109.964 19.602H109.776V19.752ZM107.064 19.752L106.918 19.7156L106.872 19.902H107.064V19.752ZM107.184 19.272V19.122H107.067L107.038 19.2356L107.184 19.272ZM109.824 19.272V19.422H109.944L109.97 19.3052L109.824 19.272ZM110.184 17.688L110.33 17.7212L110.372 17.538H110.184V17.688ZM107.544 17.688L107.398 17.6516L107.352 17.838H107.544V17.688ZM107.664 17.208V17.058H107.547L107.518 17.1716L107.664 17.208ZM110.376 17.208V17.358H110.495L110.522 17.2417L110.376 17.208ZM110.808 15.336L110.954 15.3697L110.997 15.186H110.808V15.336ZM108.096 15.336L107.949 15.3066L107.913 15.486H108.096V15.336ZM108.192 14.856V14.706H108.069L108.045 14.8266L108.192 14.856ZM110.856 14.856V15.006H110.977L111.003 14.8879L110.856 14.856ZM111.216 13.2L111.363 13.2319L111.402 13.05H111.216V13.2ZM108.6 13.2L108.453 13.1686L108.414 13.35H108.6V13.2ZM108.744 12.528L108.891 12.5594L108.93 12.378H108.744V12.528ZM102.864 12.528V12.378H102.743L102.717 12.4966L102.864 12.528ZM102.72 13.2V13.35H102.841L102.867 13.2314L102.72 13.2ZM100.224 13.2V13.05H100.105L100.078 13.1661L100.224 13.2ZM99.84 14.856L99.6939 14.8221L99.6512 15.006H99.84V14.856ZM102.312 14.856L102.459 14.8854L102.495 14.706H102.312V14.856ZM102.216 15.336V15.486H102.339L102.363 15.3654L102.216 15.336ZM99.384 15.336V15.186H99.2647L99.2378 15.3023L99.384 15.336ZM98.952 17.208L98.8058 17.1743L98.7634 17.358H98.952V17.208ZM101.784 17.208L101.93 17.2444L101.976 17.058H101.784V17.208ZM101.664 17.688V17.838H101.781L101.81 17.7244L101.664 17.688ZM99.072 17.688V17.538H98.954L98.9262 17.6527L99.072 17.688ZM98.688 19.272L98.5422 19.2367L98.4973 19.422H98.688V19.272ZM101.304 19.272L101.45 19.3084L101.496 19.122H101.304V19.272ZM101.184 19.752V19.902H101.301L101.33 19.7884L101.184 19.752ZM98.376 19.752V19.602H98.2575L98.2301 19.7173L98.376 19.752ZM97.92 21.672L97.7741 21.6373L97.7302 21.822H97.92V21.672ZM99.96 21.672L100.057 21.7861L100.367 21.522H99.96V21.672ZM98.16 23.208L98.0626 23.0939L98.025 23.126L98.0139 23.1741L98.16 23.208ZM96.792 29.112L96.6459 29.0781L96.6033 29.262H96.792V29.112ZM103.584 29.112L103.73 29.1452L103.772 28.962H103.584V29.112ZM103.464 29.64V29.79H103.584L103.61 29.6732L103.464 29.64ZM96.432 29.64V29.49H96.3127L96.2858 29.6063L96.432 29.64ZM95.28 34.632L95.1338 34.5983L95.0914 34.782H95.28V34.632ZM101.352 34.632V34.782H101.471L101.498 34.6659L101.352 34.632ZM101.736 32.976V32.826H101.617L101.59 32.9421L101.736 32.976ZM102.696 32.976L102.842 33.0103L102.885 32.826H102.696V32.976ZM102.24 34.92L102.094 34.8857L102.051 35.07H102.24V34.92ZM109.8 34.92V35.07H109.919L109.946 34.9543L109.8 34.92ZM110.256 32.976V32.826H110.137L110.11 32.9417L110.256 32.976ZM111.168 32.976L111.314 33.0099L111.357 32.826H111.168V32.976ZM110.784 34.632L110.638 34.5981L110.595 34.782H110.784V34.632ZM115.992 34.632V34.782H116.052L116.095 34.7407L115.992 34.632ZM117.456 33.24L117.559 33.3487L117.592 33.3181L117.602 33.275L117.456 33.24ZM118.32 29.64L118.466 29.675L118.51 29.49H118.32V29.64ZM111.024 29.64L110.878 29.6068L110.836 29.79H111.024V29.64ZM111.144 29.112V28.962H111.024L110.998 29.0788L111.144 29.112ZM122.544 13.296L122.69 13.3299L122.733 13.146H122.544V13.296ZM121.824 13.296L121.677 13.2646L121.638 13.446H121.824V13.296ZM121.968 12.624L122.115 12.6554L122.154 12.474H121.968V12.624ZM116.136 12.624V12.474H116.015L115.989 12.5926L116.136 12.624ZM115.992 13.296V13.446H116.113L116.139 13.3274L115.992 13.296ZM111.72 13.296V13.146H111.601L111.574 13.2621L111.72 13.296ZM110.784 17.328L110.638 17.2941L110.595 17.478H110.784V17.328ZM115.056 17.328L115.202 17.3626L115.246 17.178H115.056V17.328ZM114.72 18.744L114.809 18.8651L114.853 18.8325L114.866 18.7786L114.72 18.744ZM114.096 19.2L114.007 19.0789L113.963 19.1117L113.95 19.166L114.096 19.2ZM113.52 21.672L113.374 21.638L113.331 21.822H113.52V21.672ZM119.88 21.672V21.822H119.999L120.026 21.7059L119.88 21.672ZM120.888 17.328V17.178H120.769L120.742 17.2941L120.888 17.328ZM121.608 17.328V17.478H121.727L121.754 17.3619L121.608 17.328ZM110.856 21.672L110.735 21.7607L110.78 21.822H110.856V21.672ZM113.04 21.672V21.822H113.159L113.186 21.7056L113.04 21.672ZM113.928 17.808L114.074 17.8416L114.116 17.658H113.928V17.808ZM110.688 17.808V17.658H110.568L110.542 17.7752L110.688 17.808ZM110.064 20.592L109.918 20.5592L109.903 20.6257L109.943 20.6807L110.064 20.592ZM113.184 24.408L113.33 24.4427L113.374 24.258H113.184V24.408ZM113.064 24.912V25.062H113.182L113.21 24.9467L113.064 24.912ZM103.704 24.912L103.558 24.8773L103.514 25.062H103.704V24.912ZM103.824 24.408V24.258H103.706L103.678 24.3733L103.824 24.408ZM103.344 26.424V26.274H103.226L103.198 26.3893L103.344 26.424ZM112.704 26.424L112.85 26.4587L112.894 26.274H112.704V26.424ZM112.584 26.928V27.078H112.702L112.73 26.9627L112.584 26.928ZM103.224 26.928L103.078 26.8933L103.034 27.078H103.224V26.928ZM118.298 29.1458L119.906 22.1858L119.614 22.1182L118.006 29.0782L118.298 29.1458ZM119.76 22.002H107.016V22.302H119.76V22.002ZM107.162 22.1884L107.282 21.7084L106.99 21.6356L106.87 22.1156L107.162 22.1884ZM107.136 21.822H109.344V21.522H107.136V21.822ZM109.49 21.7049L109.922 19.7849L109.63 19.7191L109.198 21.6391L109.49 21.7049ZM109.776 19.602H107.064V19.902H109.776V19.602ZM107.21 19.7884L107.33 19.3084L107.038 19.2356L106.918 19.7156L107.21 19.7884ZM107.184 19.422H109.824V19.122H107.184V19.422ZM109.97 19.3052L110.33 17.7212L110.038 17.6548L109.678 19.2388L109.97 19.3052ZM110.184 17.538H107.544V17.838H110.184V17.538ZM107.69 17.7244L107.81 17.2444L107.518 17.1716L107.398 17.6516L107.69 17.7244ZM107.664 17.358H110.376V17.058H107.664V17.358ZM110.522 17.2417L110.954 15.3697L110.662 15.3023L110.23 17.1743L110.522 17.2417ZM110.808 15.186H108.096V15.486H110.808V15.186ZM108.243 15.3654L108.339 14.8854L108.045 14.8266L107.949 15.3066L108.243 15.3654ZM108.192 15.006H110.856V14.706H108.192V15.006ZM111.003 14.8879L111.363 13.2319L111.069 13.1681L110.709 14.8241L111.003 14.8879ZM111.216 13.05H108.6V13.35H111.216V13.05ZM108.747 13.2314L108.891 12.5594L108.597 12.4966L108.453 13.1686L108.747 13.2314ZM108.744 12.378H102.864V12.678H108.744V12.378ZM102.717 12.4966L102.573 13.1686L102.867 13.2314L103.011 12.5594L102.717 12.4966ZM102.72 13.05H100.224V13.35H102.72V13.05ZM100.078 13.1661L99.6939 14.8221L99.9861 14.8899L100.37 13.2339L100.078 13.1661ZM99.84 15.006H102.312V14.706H99.84V15.006ZM102.165 14.8266L102.069 15.3066L102.363 15.3654L102.459 14.8854L102.165 14.8266ZM102.216 15.186H99.384V15.486H102.216V15.186ZM99.2378 15.3023L98.8058 17.1743L99.0982 17.2417L99.5302 15.3697L99.2378 15.3023ZM98.952 17.358H101.784V17.058H98.952V17.358ZM101.638 17.1716L101.518 17.6516L101.81 17.7244L101.93 17.2444L101.638 17.1716ZM101.664 17.538H99.072V17.838H101.664V17.538ZM98.9262 17.6527L98.5422 19.2367L98.8338 19.3073L99.2178 17.7233L98.9262 17.6527ZM98.688 19.422H101.304V19.122H98.688V19.422ZM101.158 19.2356L101.038 19.7156L101.33 19.7884L101.45 19.3084L101.158 19.2356ZM101.184 19.602H98.376V19.902H101.184V19.602ZM98.2301 19.7173L97.7741 21.6373L98.0659 21.7067L98.5219 19.7867L98.2301 19.7173ZM97.92 21.822H99.96V21.522H97.92V21.822ZM99.8626 21.5579L98.0626 23.0939L98.2574 23.3221L100.057 21.7861L99.8626 21.5579ZM98.0139 23.1741L96.6459 29.0781L96.9381 29.1459L98.3061 23.2419L98.0139 23.1741ZM96.792 29.262H103.584V28.962H96.792V29.262ZM103.438 29.0788L103.318 29.6068L103.61 29.6732L103.73 29.1452L103.438 29.0788ZM103.464 29.49H96.432V29.79H103.464V29.49ZM96.2858 29.6063L95.1338 34.5983L95.4262 34.6657L96.5782 29.6737L96.2858 29.6063ZM95.28 34.782H101.352V34.482H95.28V34.782ZM101.498 34.6659L101.882 33.0099L101.59 32.9421L101.206 34.5981L101.498 34.6659ZM101.736 33.126H102.696V32.826H101.736V33.126ZM102.55 32.9417L102.094 34.8857L102.386 34.9543L102.842 33.0103L102.55 32.9417ZM102.24 35.07H109.8V34.77H102.24V35.07ZM109.946 34.9543L110.402 33.0103L110.11 32.9417L109.654 34.8857L109.946 34.9543ZM110.256 33.126H111.168V32.826H110.256V33.126ZM111.022 32.9421L110.638 34.5981L110.93 34.6659L111.314 33.0099L111.022 32.9421ZM110.784 34.782H115.992V34.482H110.784V34.782ZM116.095 34.7407L117.559 33.3487L117.353 33.1313L115.889 34.5233L116.095 34.7407ZM117.602 33.275L118.466 29.675L118.174 29.605L117.31 33.205L117.602 33.275ZM118.32 29.49H111.024V29.79H118.32V29.49ZM111.17 29.6732L111.29 29.1452L110.998 29.0788L110.878 29.6068L111.17 29.6732ZM111.144 29.262H118.152V28.962H111.144V29.262ZM122.544 13.146H121.824V13.446H122.544V13.146ZM121.971 13.3274L122.115 12.6554L121.821 12.5926L121.677 13.2646L121.971 13.3274ZM121.968 12.474H116.136V12.774H121.968V12.474ZM115.989 12.5926L115.845 13.2646L116.139 13.3274L116.283 12.6554L115.989 12.5926ZM115.992 13.146H111.72V13.446H115.992V13.146ZM111.574 13.2621L110.638 17.2941L110.93 17.3619L111.866 13.3299L111.574 13.2621ZM110.784 17.478H115.056V17.178H110.784V17.478ZM114.91 17.2934L114.574 18.7094L114.866 18.7786L115.202 17.3626L114.91 17.2934ZM114.632 18.6229L114.007 19.0789L114.185 19.3211L114.809 18.8651L114.632 18.6229ZM113.95 19.166L113.374 21.638L113.666 21.706L114.242 19.234L113.95 19.166ZM113.52 21.822H119.88V21.522H113.52V21.822ZM120.026 21.7059L121.034 17.3619L120.742 17.2941L119.734 21.6381L120.026 21.7059ZM120.888 17.478H121.608V17.178H120.888V17.478ZM121.754 17.3619L122.69 13.3299L122.398 13.2621L121.462 17.2941L121.754 17.3619ZM110.856 21.822H113.04V21.522H110.856V21.822ZM113.186 21.7056L114.074 17.8416L113.782 17.7744L112.894 21.6384L113.186 21.7056ZM113.928 17.658H110.688V17.958H113.928V17.658ZM110.542 17.7752L109.918 20.5592L110.21 20.6248L110.834 17.8408L110.542 17.7752ZM109.943 20.6807L110.735 21.7607L110.977 21.5833L110.185 20.5033L109.943 20.6807ZM113.038 24.3733L112.918 24.8773L113.21 24.9467L113.33 24.4427L113.038 24.3733ZM113.064 24.762H103.704V25.062H113.064V24.762ZM103.85 24.9467L103.97 24.4427L103.678 24.3733L103.558 24.8773L103.85 24.9467ZM103.824 24.558H113.184V24.258H103.824V24.558ZM103.344 26.574H112.704V26.274H103.344V26.574ZM112.558 26.3893L112.438 26.8933L112.73 26.9627L112.85 26.4587L112.558 26.3893ZM112.584 26.778H103.224V27.078H112.584V26.778ZM103.37 26.9627L103.49 26.4587L103.198 26.3893L103.078 26.8933L103.37 26.9627ZM142.56 18.192V18.342H142.608L142.647 18.3143L142.56 18.192ZM145.128 16.368L145.215 16.4903L145.262 16.4571L145.274 16.4011L145.128 16.368ZM145.872 13.08L146.018 13.1131L146.06 12.93H145.872V13.08ZM124.704 13.08V12.93H124.585L124.558 13.0464L124.704 13.08ZM123.528 18.192L123.382 18.1584L123.34 18.342H123.528V18.192ZM129.48 18.192L129.626 18.2275L129.671 18.042H129.48V18.192ZM129.24 19.176V19.326H129.358L129.386 19.2115L129.24 19.176ZM122.856 19.176V19.026H122.737L122.71 19.1422L122.856 19.176ZM121.728 24.048L121.582 24.0142L121.539 24.198H121.728V24.048ZM128.136 24.048L128.282 24.0827L128.326 23.898H128.136V24.048ZM127.896 25.056V25.206H128.014L128.042 25.0907L127.896 25.056ZM121.416 25.056V24.906H121.297L121.27 25.0225L121.416 25.056ZM120.216 30.288L120.07 30.2545L120.028 30.438H120.216V30.288ZM126.696 30.288L126.842 30.323L126.886 30.138H126.696V30.288ZM126.552 30.888L126.615 31.0241L126.681 30.9935L126.698 30.923L126.552 30.888ZM123.864 32.136L123.801 31.9999L123.735 32.0306L123.718 32.1014L123.864 32.136ZM123.216 34.872L123.07 34.8374L123.026 35.022H123.216V34.872ZM134.64 34.872V35.022H134.759L134.786 34.9057L134.64 34.872ZM135.696 30.288V30.138H135.577L135.55 30.2543L135.696 30.288ZM142.368 30.288V30.438H142.487L142.514 30.3215L142.368 30.288ZM143.568 25.056L143.714 25.0895L143.756 24.906H143.568V25.056ZM136.896 25.056L136.75 25.0213L136.706 25.206H136.896V25.056ZM137.136 24.048V23.898H137.018L136.99 24.0133L137.136 24.048ZM143.736 24.048V24.198H143.855L143.882 24.0818L143.736 24.048ZM144.864 19.176L145.01 19.2098L145.053 19.026H144.864V19.176ZM138.24 19.176L138.094 19.1405L138.049 19.326H138.24V19.176ZM138.48 18.192V18.042H138.362L138.334 18.1565L138.48 18.192ZM142.647 18.3143L145.215 16.4903L145.041 16.2457L142.473 18.0697L142.647 18.3143ZM145.274 16.4011L146.018 13.1131L145.726 13.0469L144.982 16.3349L145.274 16.4011ZM145.872 12.93H124.704V13.23H145.872V12.93ZM124.558 13.0464L123.382 18.1584L123.674 18.2256L124.85 13.1136L124.558 13.0464ZM123.528 18.342H129.48V18.042H123.528V18.342ZM129.334 18.1565L129.094 19.1405L129.386 19.2115L129.626 18.2275L129.334 18.1565ZM129.24 19.026H122.856V19.326H129.24V19.026ZM122.71 19.1422L121.582 24.0142L121.874 24.0818L123.002 19.2098L122.71 19.1422ZM121.728 24.198H128.136V23.898H121.728V24.198ZM127.99 24.0133L127.75 25.0213L128.042 25.0907L128.282 24.0827L127.99 24.0133ZM127.896 24.906H121.416V25.206H127.896V24.906ZM121.27 25.0225L120.07 30.2545L120.362 30.3215L121.562 25.0895L121.27 25.0225ZM120.216 30.438H126.696V30.138H120.216V30.438ZM126.55 30.253L126.406 30.853L126.698 30.923L126.842 30.323L126.55 30.253ZM126.489 30.7519L123.801 31.9999L123.927 32.2721L126.615 31.0241L126.489 30.7519ZM123.718 32.1014L123.07 34.8374L123.362 34.9066L124.01 32.1706L123.718 32.1014ZM123.216 35.022H134.64V34.722H123.216V35.022ZM134.786 34.9057L135.842 30.3217L135.55 30.2543L134.494 34.8383L134.786 34.9057ZM135.696 30.438H142.368V30.138H135.696V30.438ZM142.514 30.3215L143.714 25.0895L143.422 25.0225L142.222 30.2545L142.514 30.3215ZM143.568 24.906H136.896V25.206H143.568V24.906ZM137.042 25.0907L137.282 24.0827L136.99 24.0133L136.75 25.0213L137.042 25.0907ZM137.136 24.198H143.736V23.898H137.136V24.198ZM143.882 24.0818L145.01 19.2098L144.718 19.1422L143.59 24.0142L143.882 24.0818ZM144.864 19.026H138.24V19.326H144.864V19.026ZM138.386 19.2115L138.626 18.2275L138.334 18.1565L138.094 19.1405L138.386 19.2115ZM138.48 18.342H142.56V18.042H138.48V18.342Z" fill="white"/>
<path d="M12.2869 12.26H12.0861L11.9411 12.3989L5.65417 18.4196L5.31271 18.7466L5.62012 19.1058L23.8821 40.4451L24.2675 40.8955L24.6465 40.4396L42.3845 19.1004L42.6734 18.7528L42.3567 18.4304L36.4441 12.4097L36.2971 12.26H36.0873H12.2869Z" fill="#FF1952" stroke="black"/>
<mask id="mask0_1102_2250" style="mask-type:alpha" maskUnits="userSpaceOnUse" x="6" y="7" width="36" height="34">
<path d="M24.2564 39.3445L6.5 18.5959V7.5H41.5V18.6L24.2564 39.3445Z" fill="#FF1952" stroke="black"/>
</mask>
<g mask="url(#mask0_1102_2250)">
<mask id="path-5-outside-1_1102_2250" maskUnits="userSpaceOnUse" x="10.76" y="7.44006" width="24" height="38" fill="black">
<rect fill="white" x="10.76" y="7.44006" width="24" height="38"/>
<path d="M12.8772 25.8324L14.6349 23.9773C15.3746 23.1966 16.5757 23.1966 17.3154 23.9773C18.0551 24.758 18.0551 26.0256 17.3154 26.8063L16.4041 27.768C16.1677 28.0175 16.1677 28.428 16.4041 28.6775C16.4384 28.7137 16.4766 28.7298 16.5147 28.7539L17.6509 30.0095C17.7653 30.1383 17.9255 30.2067 18.0932 30.2067H19.4964C21.2541 30.2067 22.6839 31.7157 22.6839 33.5708C22.6839 33.925 22.9585 34.2147 23.294 34.2147C23.6295 34.2147 23.9041 33.925 23.9041 33.5708C23.9041 31.0075 21.9252 28.9189 19.4964 28.9189H18.3563L17.7119 28.2067L18.1809 27.7117C19.2371 26.597 19.3705 24.8787 18.5927 23.6071C19.992 23.426 21.0825 22.2509 21.0825 20.8143V9.98131C21.0825 9.13222 21.8184 8.44006 22.7221 8.44006C23.6257 8.44006 24.3616 9.13222 24.3616 9.98131V21.9089C24.3616 22.263 24.6361 22.5527 24.9717 22.5527C25.3072 22.5527 25.5817 22.263 25.5817 21.9089V10.9431C25.5817 10.094 26.3176 9.40183 27.2213 9.40183C28.1249 9.40183 28.8608 10.094 28.8608 10.9431V21.9089C28.8608 22.263 29.1353 22.5527 29.4709 22.5527C29.8064 22.5527 30.0809 22.263 30.0809 21.9089V14.7902C30.0809 13.9411 30.8168 13.2489 31.7205 13.2489C32.6241 13.2489 33.36 13.9411 33.36 14.7902V32.9873C33.36 33.1443 33.3066 33.2972 33.2075 33.43L30.6033 36.8586C30.4165 37.104 30.4393 37.438 30.6224 37.6714V44.4401H18.0017V37.261C18.0017 37.261 17.9941 37.2288 17.9903 37.2087C17.9865 37.1443 17.9788 37.0759 17.9521 37.0155C17.9255 36.9511 17.8873 36.8908 17.8416 36.8385C17.8339 36.8304 17.8301 36.8143 17.8225 36.8063L12.8619 31.5185C11.3864 29.9451 11.394 27.3938 12.8772 25.8324Z"/>
</mask>
<path d="M12.8772 25.8324L14.6349 23.9773C15.3746 23.1966 16.5757 23.1966 17.3154 23.9773C18.0551 24.758 18.0551 26.0256 17.3154 26.8063L16.4041 27.768C16.1677 28.0175 16.1677 28.428 16.4041 28.6775C16.4384 28.7137 16.4766 28.7298 16.5147 28.7539L17.6509 30.0095C17.7653 30.1383 17.9255 30.2067 18.0932 30.2067H19.4964C21.2541 30.2067 22.6839 31.7157 22.6839 33.5708C22.6839 33.925 22.9585 34.2147 23.294 34.2147C23.6295 34.2147 23.9041 33.925 23.9041 33.5708C23.9041 31.0075 21.9252 28.9189 19.4964 28.9189H18.3563L17.7119 28.2067L18.1809 27.7117C19.2371 26.597 19.3705 24.8787 18.5927 23.6071C19.992 23.426 21.0825 22.2509 21.0825 20.8143V9.98131C21.0825 9.13222 21.8184 8.44006 22.7221 8.44006C23.6257 8.44006 24.3616 9.13222 24.3616 9.98131V21.9089C24.3616 22.263 24.6361 22.5527 24.9717 22.5527C25.3072 22.5527 25.5817 22.263 25.5817 21.9089V10.9431C25.5817 10.094 26.3176 9.40183 27.2213 9.40183C28.1249 9.40183 28.8608 10.094 28.8608 10.9431V21.9089C28.8608 22.263 29.1353 22.5527 29.4709 22.5527C29.8064 22.5527 30.0809 22.263 30.0809 21.9089V14.7902C30.0809 13.9411 30.8168 13.2489 31.7205 13.2489C32.6241 13.2489 33.36 13.9411 33.36 14.7902V32.9873C33.36 33.1443 33.3066 33.2972 33.2075 33.43L30.6033 36.8586C30.4165 37.104 30.4393 37.438 30.6224 37.6714V44.4401H18.0017V37.261C18.0017 37.261 17.9941 37.2288 17.9903 37.2087C17.9865 37.1443 17.9788 37.0759 17.9521 37.0155C17.9255 36.9511 17.8873 36.8908 17.8416 36.8385C17.8339 36.8304 17.8301 36.8143 17.8225 36.8063L12.8619 31.5185C11.3864 29.9451 11.394 27.3938 12.8772 25.8324Z" fill="#FDC8BC"/>
<path d="M12.8772 25.8324L13.6022 26.5211L13.6031 26.5202L12.8772 25.8324ZM14.6349 23.9773L15.3608 24.6651L15.3608 24.6651L14.6349 23.9773ZM17.3154 26.8063L16.5895 26.1185L17.3154 26.8063ZM16.4041 27.768L17.13 28.4558L16.4041 27.768ZM16.4041 28.6775L15.6782 29.3653L16.4041 28.6775ZM16.5147 28.7539L17.2561 28.0829L17.1648 27.982L17.0497 27.9091L16.5147 28.7539ZM17.6509 30.0095L18.3986 29.3453L18.3924 29.3385L17.6509 30.0095ZM18.3563 28.9189L17.6147 29.5898L17.9125 29.9189H18.3563V28.9189ZM17.7119 28.2067L16.986 27.5189L16.3492 28.191L16.9704 28.8775L17.7119 28.2067ZM18.1809 27.7117L18.9068 28.3995H18.9068L18.1809 27.7117ZM18.5927 23.6071L18.4644 22.6153L16.9349 22.8133L17.7396 24.1289L18.5927 23.6071ZM33.2075 33.43L34.0039 34.0349L34.0088 34.0282L33.2075 33.43ZM30.6033 36.8586L31.399 37.4642L31.3996 37.4634L30.6033 36.8586ZM30.6224 37.6714H31.6224V37.3261L31.4093 37.0544L30.6224 37.6714ZM30.6224 44.4401V45.4401H31.6224V44.4401H30.6224ZM18.0017 44.4401H17.0017V45.4401H18.0017V44.4401ZM18.0017 37.261H19.0017V37.1442L18.9748 37.0305L18.0017 37.261ZM17.9903 37.2087L16.992 37.2678L16.9958 37.3318L17.0078 37.3949L17.9903 37.2087ZM17.9521 37.0155L17.0284 37.3984L17.0328 37.4092L17.0376 37.4199L17.9521 37.0155ZM17.8416 36.8385L18.5943 36.1801L18.5812 36.1651L18.5675 36.1507L17.8416 36.8385ZM17.8225 36.8063L17.0932 37.4905L17.0966 37.4941L17.8225 36.8063ZM12.8619 31.5185L12.1325 32.2026L12.1326 32.2027L12.8619 31.5185ZM13.6031 26.5202L15.3608 24.6651L13.909 23.2895L12.1513 25.1446L13.6031 26.5202ZM15.3608 24.6651C15.7061 24.3007 16.2442 24.3007 16.5895 24.6651L18.0413 23.2895C16.9072 22.0925 15.0432 22.0925 13.909 23.2895L15.3608 24.6651ZM16.5895 24.6651C16.9637 25.0601 16.9637 25.7235 16.5895 26.1185L18.0413 27.4941C19.1465 26.3277 19.1465 24.4559 18.0413 23.2895L16.5895 24.6651ZM16.5895 26.1185L15.6782 27.0802L17.13 28.4558L18.0413 27.4941L16.5895 26.1185ZM15.6782 27.0802C15.0764 27.7154 15.0764 28.7301 15.6782 29.3653L17.13 27.9897C17.2022 28.0658 17.2268 28.1535 17.2268 28.2228C17.2268 28.292 17.2022 28.3797 17.13 28.4558L15.6782 27.0802ZM15.6782 29.3653C15.7747 29.4671 15.8695 29.5318 15.9296 29.5692C15.9558 29.5856 15.9809 29.5999 15.9861 29.6029C15.9963 29.6088 15.9895 29.605 15.9797 29.5988L17.0497 27.9091C17.0208 27.8908 16.995 27.876 16.9862 27.8709C16.9724 27.863 16.9787 27.8665 16.9864 27.8713C17.0093 27.8855 17.0678 27.9241 17.13 27.9897L15.6782 29.3653ZM15.7732 29.4249L16.9095 30.6805L18.3924 29.3385L17.2561 28.0829L15.7732 29.4249ZM16.9033 30.6736C17.2142 31.0236 17.65 31.2067 18.0932 31.2067V29.2067C18.2009 29.2067 18.3164 29.2529 18.3986 29.3454L16.9033 30.6736ZM18.0932 31.2067H19.4964V29.2067H18.0932V31.2067ZM19.4964 31.2067C20.6517 31.2067 21.6839 32.2165 21.6839 33.5708H23.6839C23.6839 31.2149 21.8565 29.2067 19.4964 29.2067V31.2067ZM21.6839 33.5708C21.6839 34.4258 22.356 35.2147 23.294 35.2147V33.2147C23.5609 33.2147 23.6839 33.4242 23.6839 33.5708H21.6839ZM23.294 35.2147C24.2319 35.2147 24.9041 34.4258 24.9041 33.5708H22.9041C22.9041 33.4242 23.0271 33.2147 23.294 33.2147V35.2147ZM24.9041 33.5708C24.9041 30.5067 22.5276 27.9189 19.4964 27.9189V29.9189C21.3228 29.9189 22.9041 31.5083 22.9041 33.5708H24.9041ZM19.4964 27.9189H18.3563V29.9189H19.4964V27.9189ZM19.0979 28.2481L18.4535 27.5358L16.9704 28.8775L17.6147 29.5898L19.0979 28.2481ZM18.4378 28.8945L18.9068 28.3995L17.455 27.0239L16.986 27.5189L18.4378 28.8945ZM18.9068 28.3995C20.2869 26.9429 20.4494 24.7261 19.4458 23.0853L17.7396 24.1289C18.2917 25.0313 18.1872 26.2511 17.455 27.0239L18.9068 28.3995ZM18.7211 24.5988C20.5957 24.3562 22.0825 22.7766 22.0825 20.8143H20.0825C20.0825 21.7253 19.3883 22.4958 18.4644 22.6153L18.7211 24.5988ZM22.0825 20.8143V9.98131H20.0825V20.8143H22.0825ZM22.0825 9.98131C22.0825 9.74169 22.3117 9.44006 22.7221 9.44006V7.44006C21.3251 7.44006 20.0825 8.52275 20.0825 9.98131H22.0825ZM22.7221 9.44006C23.1324 9.44006 23.3616 9.74169 23.3616 9.98131H25.3616C25.3616 8.52275 24.119 7.44006 22.7221 7.44006V9.44006ZM23.3616 9.98131V21.9089H25.3616V9.98131H23.3616ZM23.3616 21.9089C23.3616 22.7638 24.0337 23.5527 24.9717 23.5527V21.5527C25.2385 21.5527 25.3616 21.7622 25.3616 21.9089H23.3616ZM24.9717 23.5527C25.9096 23.5527 26.5817 22.7638 26.5817 21.9089H24.5817C24.5817 21.7622 24.7048 21.5527 24.9717 21.5527V23.5527ZM26.5817 21.9089V10.9431H24.5817V21.9089H26.5817ZM26.5817 10.9431C26.5817 10.7035 26.8109 10.4018 27.2213 10.4018V8.40183C25.8243 8.40183 24.5817 9.48452 24.5817 10.9431H26.5817ZM27.2213 10.4018C27.6316 10.4018 27.8608 10.7035 27.8608 10.9431H29.8608C29.8608 9.48452 28.6182 8.40183 27.2213 8.40183V10.4018ZM27.8608 10.9431V21.9089H29.8608V10.9431H27.8608ZM27.8608 21.9089C27.8608 22.7638 28.5329 23.5527 29.4709 23.5527V21.5527C29.7378 21.5527 29.8608 21.7622 29.8608 21.9089H27.8608ZM29.4709 23.5527C30.4088 23.5527 31.0809 22.7638 31.0809 21.9089H29.0809C29.0809 21.7622 29.204 21.5527 29.4709 21.5527V23.5527ZM31.0809 21.9089V14.7902H29.0809V21.9089H31.0809ZM31.0809 14.7902C31.0809 14.5505 31.3101 14.2489 31.7205 14.2489V12.2489C30.3235 12.2489 29.0809 13.3316 29.0809 14.7902H31.0809ZM31.7205 14.2489C32.1308 14.2489 32.36 14.5505 32.36 14.7902H34.36C34.36 13.3316 33.1174 12.2489 31.7205 12.2489V14.2489ZM32.36 14.7902V32.9873H34.36V14.7902H32.36ZM32.36 32.9873C32.36 32.9118 32.3868 32.8578 32.4062 32.8318L34.0088 34.0282C34.2265 33.7366 34.36 33.3767 34.36 32.9873H32.36ZM32.4112 32.8251L29.807 36.2537L31.3996 37.4634L34.0038 34.0349L32.4112 32.8251ZM29.8076 36.2529C29.3158 36.8991 29.4027 37.7367 29.8354 38.2885L31.4093 37.0544C31.476 37.1394 31.5172 37.309 31.399 37.4642L29.8076 36.2529ZM29.6224 37.6714V44.4401H31.6224V37.6714H29.6224ZM30.6224 43.4401H18.0017V45.4401H30.6224V43.4401ZM19.0017 44.4401V37.261H17.0017V44.4401H19.0017ZM18.0017 37.261C18.9748 37.0305 18.9748 37.0305 18.9748 37.0305C18.9748 37.0305 18.9748 37.0306 18.9748 37.0306C18.9748 37.0306 18.9748 37.0306 18.9748 37.0306C18.9748 37.0306 18.9748 37.0307 18.9748 37.0307C18.9749 37.0308 18.9749 37.0308 18.9749 37.0308C18.9749 37.0309 18.9749 37.031 18.9749 37.031C18.9749 37.0311 18.9749 37.0311 18.9749 37.031C18.9748 37.0307 18.9747 37.0301 18.9745 37.0293C18.9741 37.0275 18.9735 37.025 18.9729 37.0223C18.9709 37.0135 18.9713 37.0146 18.9728 37.0225L17.0078 37.3949C17.0131 37.4229 17.0192 37.4501 17.0219 37.4624C17.0237 37.4703 17.0253 37.4771 17.0264 37.482C17.027 37.4845 17.0275 37.4866 17.0279 37.4882C17.0281 37.489 17.0282 37.4897 17.0283 37.4902C17.0284 37.4905 17.0285 37.4907 17.0285 37.4909C17.0285 37.491 17.0286 37.4911 17.0286 37.4912C17.0286 37.4913 17.0286 37.4913 17.0286 37.4914C17.0286 37.4914 17.0286 37.4914 17.0286 37.4914C17.0286 37.4914 17.0286 37.4914 17.0286 37.4914C17.0286 37.4915 17.0286 37.4915 18.0017 37.261ZM18.9885 37.1496C18.9838 37.0689 18.9707 36.8463 18.8667 36.6111L17.0376 37.4199C17.0093 37.356 16.9987 37.3054 16.9948 37.2829C16.9909 37.2611 16.991 37.2512 16.992 37.2678L18.9885 37.1496ZM18.8759 36.6326C18.8057 36.4631 18.7083 36.3105 18.5943 36.1801L17.0889 37.4968C17.0664 37.4711 17.0453 37.4392 17.0284 37.3984L18.8759 36.6326ZM18.5675 36.1507C18.6088 36.1942 18.6395 36.2347 18.661 36.2658C18.6826 36.297 18.6986 36.324 18.709 36.3426C18.7194 36.3613 18.727 36.3763 18.7308 36.384C18.7343 36.3911 18.7371 36.397 18.7357 36.3942C18.7356 36.394 18.7314 36.385 18.7265 36.375C18.7212 36.3643 18.7122 36.3465 18.7002 36.325C18.6882 36.3036 18.6707 36.274 18.6473 36.2403C18.6241 36.2068 18.5916 36.164 18.5484 36.1185L17.0966 37.4941C17.0553 37.4505 17.0246 37.41 17.0031 37.3789C16.9814 37.3477 16.9655 37.3207 16.9551 37.3021C16.9446 37.2834 16.9371 37.2684 16.9333 37.2607C16.9298 37.2536 16.927 37.2477 16.9283 37.2505C16.9284 37.2507 16.9327 37.2597 16.9376 37.2697C16.9429 37.2804 16.9519 37.2983 16.9639 37.3197C16.9759 37.3411 16.9934 37.3707 17.0167 37.4044C17.04 37.4379 17.0725 37.4807 17.1157 37.5262L18.5675 36.1507ZM18.5518 36.1221L13.5913 30.8343L12.1326 32.2027L17.0932 37.4904L18.5518 36.1221ZM13.5914 30.8345C12.4777 29.647 12.4845 27.6978 13.6022 26.5211L12.1522 25.1437C10.3035 27.0898 10.295 30.2432 12.1325 32.2026L13.5914 30.8345Z" fill="black" mask="url(#path-5-outside-1_1102_2250)"/>
<path d="M16.08 15.9472C16.08 15.0234 17.0043 14.2376 18.1396 14.2H18.24C19.4305 14.2 20.4 14.9189 20.4 15.8009V21.239C20.4 22.121 19.4305 22.84 18.24 22.84C17.0495 22.84 16.08 22.121 16.08 21.239V15.9472Z" fill="#FDC8BC" stroke="black"/>
</g>
</svg>
