<svg width="24" height="24" viewBox="0 0 24 24" fill="none" xmlns="http://www.w3.org/2000/svg">
<path fill-rule="evenodd" clip-rule="evenodd" d="M5.24997 9C5.24997 7.20979 5.96113 5.4929 7.227 4.22703C8.49287 2.96116 10.2098 2.25 12 2.25C13.7902 2.25 15.5071 2.96116 16.7729 4.22703C18.0388 5.4929 18.75 7.20979 18.75 9V9.75C18.75 11.873 19.55 13.807 20.868 15.27C20.9501 15.361 21.0086 15.4707 21.0385 15.5896C21.0684 15.7084 21.0687 15.8328 21.0394 15.9518C21.0101 16.0708 20.9521 16.1808 20.8704 16.2722C20.7887 16.3636 20.6859 16.4335 20.571 16.476C19.027 17.046 17.411 17.466 15.74 17.719C15.7776 18.2331 15.7088 18.7495 15.5379 19.2359C15.367 19.7222 15.0977 20.1681 14.7467 20.5457C14.3957 20.9233 13.9707 21.2245 13.4981 21.4304C13.0255 21.6364 12.5155 21.7427 12 21.7427C11.4845 21.7427 10.9745 21.6364 10.5019 21.4304C10.0293 21.2245 9.60424 20.9233 9.25327 20.5457C8.90229 20.1681 8.63295 19.7222 8.46204 19.2359C8.29114 18.7495 8.22235 18.2331 8.25997 17.719C6.61163 17.4692 4.99296 17.0524 3.42897 16.475C3.31411 16.4326 3.21137 16.3627 3.12973 16.2715C3.0481 16.1802 2.99005 16.0703 2.96065 15.9515C2.93126 15.8326 2.93141 15.7084 2.9611 15.5896C2.99079 15.4708 3.04911 15.3611 3.13097 15.27C4.49778 13.7567 5.25305 11.7892 5.24997 9.75V9ZM9.75197 17.9C9.73918 18.2032 9.78785 18.5058 9.89506 18.7897C10.0023 19.0736 10.1658 19.3329 10.3758 19.5519C10.5858 19.771 10.838 19.9453 11.1171 20.0644C11.3962 20.1835 11.6965 20.2448 12 20.2448C12.3034 20.2448 12.6038 20.1835 12.8829 20.0644C13.162 19.9453 13.4141 19.771 13.6242 19.5519C13.8342 19.3329 13.9977 19.0736 14.1049 18.7897C14.2121 18.5058 14.2608 18.2032 14.248 17.9C12.7523 18.0347 11.2476 18.0347 9.75197 17.9Z" fill="black"/>
</svg>
