<svg width="24" height="24" viewBox="0 0 24 24" fill="none" xmlns="http://www.w3.org/2000/svg">
<path d="M7.49301 18.75C7.06801 18.75 6.67301 18.514 6.51801 18.118C6.17475 17.2443 5.99902 16.3137 6.00001 15.375C6.00001 13.625 6.59901 12.017 7.60201 10.741C7.75301 10.549 7.97501 10.432 8.20201 10.344C8.67501 10.161 9.09201 9.83 9.41401 9.42C10.1903 8.42964 11.1647 7.61221 12.275 7.02C12.998 6.636 13.625 6.064 13.928 5.305C14.1408 4.77325 14.2501 4.20575 14.25 3.633V3C14.25 2.80109 14.329 2.61032 14.4697 2.46967C14.6103 2.32902 14.8011 2.25 15 2.25C15.5967 2.25 16.169 2.48705 16.591 2.90901C17.013 3.33097 17.25 3.90326 17.25 4.5C17.25 5.652 16.99 6.743 16.527 7.718C16.261 8.276 16.634 9 17.252 9H20.378C21.404 9 22.323 9.694 22.432 10.715C22.477 11.137 22.5 11.565 22.5 12C22.5041 14.7363 21.5691 17.3912 19.851 19.521C19.463 20.003 18.864 20.25 18.246 20.25H14.23C13.747 20.25 13.266 20.172 12.807 20.02L9.69301 18.98C9.23411 18.8274 8.75362 18.7497 8.27001 18.75H7.49301ZM2.33101 10.977C1.77993 12.3777 1.498 13.8698 1.50001 15.375C1.49875 16.5633 1.67399 17.7452 2.02001 18.882C2.28001 19.732 3.10401 20.25 3.99301 20.25H4.90001C5.34501 20.25 5.62001 19.752 5.42301 19.352C4.81315 18.1151 4.49695 16.7541 4.49901 15.375C4.49901 13.667 4.97501 12.07 5.80101 10.709C6.04601 10.306 5.77301 9.75 5.30101 9.75H4.25001C3.41801 9.75 2.63701 10.203 2.33101 10.977Z" fill="#0C0D50"/>
</svg>
