<svg width="24" height="24" viewBox="0 0 24 24" fill="none" xmlns="http://www.w3.org/2000/svg">
<path fill-rule="evenodd" clip-rule="evenodd" d="M12.516 2.16995C12.3767 2.03786 12.192 1.96423 12 1.96423C11.808 1.96423 11.6233 2.03786 11.484 2.16995C9.36128 4.18583 6.53413 5.29128 3.60701 5.24995C3.44754 5.24788 3.29157 5.29669 3.16173 5.3893C3.0319 5.48191 2.93496 5.6135 2.88501 5.76495C2.46298 7.05111 2.24862 8.39632 2.25001 9.74995C2.25001 15.6919 6.31401 20.6829 11.813 22.0979C11.9357 22.1296 12.0643 22.1296 12.187 22.0979C17.686 20.6829 21.75 15.6919 21.75 9.74995C21.75 8.35995 21.527 7.01995 21.115 5.76495C21.0652 5.61331 20.9684 5.48151 20.8385 5.38871C20.7087 5.2959 20.5526 5.24695 20.393 5.24895L20.25 5.24995C17.254 5.24995 14.533 4.07995 12.516 2.16995ZM15.61 10.186C15.67 10.106 15.7134 10.0149 15.7377 9.9179C15.762 9.82093 15.7666 9.72009 15.7514 9.6213C15.7361 9.52252 15.7013 9.42777 15.6489 9.34265C15.5965 9.25752 15.5276 9.18373 15.4463 9.1256C15.3649 9.06748 15.2728 9.02619 15.1753 9.00418C15.0778 8.98217 14.9769 8.97987 14.8785 8.99741C14.7801 9.01496 14.6862 9.052 14.6023 9.10636C14.5184 9.16072 14.4462 9.2313 14.39 9.31395L11.154 13.844L9.53001 12.22C9.38783 12.0875 9.19979 12.0153 9.00548 12.0188C8.81118 12.0222 8.6258 12.1009 8.48839 12.2383C8.35097 12.3757 8.27226 12.5611 8.26883 12.7554C8.2654 12.9497 8.33753 13.1378 8.47001 13.28L10.72 15.53C10.797 15.6069 10.8898 15.6661 10.992 15.7036C11.0942 15.7411 11.2033 15.7558 11.3118 15.7469C11.4202 15.7379 11.5255 15.7055 11.6201 15.6518C11.7148 15.5981 11.7967 15.5245 11.86 15.436L15.61 10.186Z" fill="black"/>
</svg>
