<svg width="24" height="24" viewBox="0 0 24 24" fill="none" xmlns="http://www.w3.org/2000/svg">
<path fill-rule="evenodd" clip-rule="evenodd" d="M12 2.25C6.615 2.25 2.25 6.615 2.25 12C2.25 17.385 6.615 21.75 12 21.75C17.385 21.75 21.75 17.385 21.75 12C21.75 6.615 17.385 2.25 12 2.25ZM9.375 8.25C8.835 8.25 8.547 8.669 8.439 8.884C8.3107 9.15445 8.24604 9.45069 8.25 9.75C8.25 10.048 8.309 10.355 8.439 10.616C8.547 10.831 8.834 11.25 9.375 11.25C9.915 11.25 10.203 10.831 10.311 10.616C10.441 10.356 10.5 10.048 10.5 9.75C10.5 9.452 10.441 9.145 10.311 8.884C10.203 8.669 9.916 8.25 9.375 8.25ZM13.689 8.884C13.797 8.669 14.084 8.25 14.625 8.25C15.165 8.25 15.453 8.669 15.561 8.884C15.691 9.144 15.75 9.452 15.75 9.75C15.75 10.048 15.691 10.355 15.561 10.616C15.453 10.831 15.166 11.25 14.625 11.25C14.085 11.25 13.797 10.831 13.689 10.616C13.5607 10.3456 13.496 10.0493 13.5 9.75C13.5 9.452 13.559 9.145 13.689 8.884ZM15.712 15.712C15.7857 15.6433 15.8448 15.5605 15.8858 15.4685C15.9268 15.3765 15.9488 15.2772 15.9506 15.1765C15.9524 15.0758 15.9338 14.9758 15.8961 14.8824C15.8584 14.789 15.8023 14.7042 15.731 14.633C15.6598 14.5617 15.575 14.5056 15.4816 14.4679C15.3882 14.4302 15.2882 14.4116 15.1875 14.4134C15.0868 14.4152 14.9875 14.4372 14.8955 14.4782C14.8035 14.5192 14.7207 14.5783 14.652 14.652C14.3038 15.0003 13.8903 15.2766 13.4353 15.4652C12.9803 15.6537 12.4925 15.7507 12 15.7507C11.5075 15.7507 11.0197 15.6537 10.5647 15.4652C10.1097 15.2766 9.69623 15.0003 9.348 14.652C9.20582 14.5195 9.01778 14.4474 8.82348 14.4508C8.62918 14.4543 8.44379 14.533 8.30638 14.6704C8.16897 14.8078 8.09025 14.9932 8.08683 15.1875C8.0834 15.3818 8.15552 15.5698 8.288 15.712C9.27254 16.6964 10.6078 17.2494 12 17.2494C13.3922 17.2494 14.7275 16.6964 15.712 15.712Z" fill="#5658FB"/>
</svg>
