<svg width="24" height="24" viewBox="0 0 24 24" fill="none" xmlns="http://www.w3.org/2000/svg">
<path fill-rule="evenodd" clip-rule="evenodd" d="M9.375 1.5C8.34 1.5 7.5 2.339 7.5 3.375V16.125C7.5 16.6223 7.69754 17.0992 8.04917 17.4508C8.4008 17.8025 8.87772 18 9.375 18H19.125C20.16 18 21 17.16 21 16.125V12.75C21 11.7554 20.6049 10.8016 19.9017 10.0983C19.1984 9.39509 18.2446 9 17.25 9H15.375C14.34 9 13.5 8.161 13.5 7.125V5.25C13.5 4.25544 13.1049 3.30161 12.4017 2.59835C11.6984 1.89509 10.7446 1.5 9.75 1.5H9.375ZM13.721 1.81601C14.5475 2.76897 15.0018 3.98856 15 5.25001V7.12501C15 7.22447 15.0395 7.31985 15.1098 7.39017C15.1802 7.4605 15.2755 7.50001 15.375 7.50001H17.25C18.5115 7.49826 19.731 7.95249 20.684 8.77901C20.244 7.10572 19.3675 5.57931 18.1441 4.3559C16.9207 3.13248 15.3943 2.25597 13.721 1.81601ZM6 6.00001H4.875C3.84 6.00001 3 6.83901 3 7.87501V20.625C3 21.1223 3.19754 21.5992 3.54917 21.9508C3.90081 22.3025 4.37772 22.5 4.875 22.5H14.625C15.66 22.5 16.5 21.66 16.5 20.625V19.5H9.375C8.47989 19.5 7.62145 19.1444 6.98851 18.5115C6.35558 17.8786 6 17.0201 6 16.125V6.00001Z" fill="#fff"/>
</svg>
