<svg width="24" height="24" viewBox="0 0 24 24" fill="none" xmlns="http://www.w3.org/2000/svg">
<path fill-rule="evenodd" clip-rule="evenodd" d="M18.685 19.097C19.654 18.1865 20.426 17.0869 20.9532 15.8662C21.4803 14.6455 21.7515 13.3297 21.75 12C21.75 6.615 17.385 2.25 12 2.25C6.61501 2.25 2.25001 6.615 2.25001 12C2.24847 13.3297 2.51967 14.6455 3.04686 15.8662C3.57404 17.0869 4.346 18.1865 5.31501 19.097C7.12194 20.8039 9.51435 21.7533 12 21.75C14.4857 21.7533 16.8781 20.8039 18.685 19.097ZM6.14501 17.812C6.84708 16.9336 7.73802 16.2247 8.75164 15.7379C9.76527 15.2511 10.8755 14.9989 12 15C13.1245 14.9989 14.2347 15.2511 15.2484 15.7379C16.262 16.2247 17.1529 16.9336 17.855 17.812C17.089 18.5857 16.1771 19.1996 15.172 19.6181C14.1669 20.0366 13.0887 20.2514 12 20.25C10.9113 20.2514 9.83311 20.0366 8.82803 19.6181C7.82296 19.1996 6.91098 18.5857 6.14501 17.812ZM15.75 9C15.75 9.99456 15.3549 10.9484 14.6517 11.6517C13.9484 12.3549 12.9946 12.75 12 12.75C11.0054 12.75 10.0516 12.3549 9.34836 11.6517C8.64509 10.9484 8.25001 9.99456 8.25001 9C8.25001 8.00544 8.64509 7.05161 9.34836 6.34835C10.0516 5.64509 11.0054 5.25 12 5.25C12.9946 5.25 13.9484 5.64509 14.6517 6.34835C15.3549 7.05161 15.75 8.00544 15.75 9Z" fill="black"/>
</svg>
