<svg width="24" height="24" viewBox="0 0 24 24" fill="none" xmlns="http://www.w3.org/2000/svg">
<path fill-rule="evenodd" clip-rule="evenodd" d="M7.38462 4.61538C7.38462 3.39131 7.87088 2.21737 8.73643 1.35181C9.60198 0.486262 10.7759 0 12 0C13.2241 0 14.398 0.486262 15.2636 1.35181C16.1291 2.21737 16.6154 3.39131 16.6154 4.61538C16.6154 5.83946 16.1291 7.0134 15.2636 7.87895C14.398 8.74451 13.2241 9.23077 12 9.23077C10.7759 9.23077 9.60198 8.74451 8.73643 7.87895C7.87088 7.0134 7.38462 5.83946 7.38462 4.61538ZM16.6154 8.30769C16.6154 7.32843 17.0044 6.38928 17.6968 5.69684C18.3893 5.00439 19.3284 4.61538 20.3077 4.61538C21.287 4.61538 22.2261 5.00439 22.9185 5.69684C23.611 6.38928 24 7.32843 24 8.30769C24 9.28695 23.611 10.2261 22.9185 10.9185C22.2261 11.611 21.287 12 20.3077 12C19.3284 12 18.3893 11.611 17.6968 10.9185C17.0044 10.2261 16.6154 9.28695 16.6154 8.30769ZM0 8.30769C0 7.32843 0.38901 6.38928 1.08145 5.69684C1.77389 5.00439 2.71305 4.61538 3.69231 4.61538C4.67157 4.61538 5.61072 5.00439 6.30316 5.69684C6.99561 6.38928 7.38462 7.32843 7.38462 8.30769C7.38462 9.28695 6.99561 10.2261 6.30316 10.9185C5.61072 11.611 4.67157 12 3.69231 12C2.71305 12 1.77389 11.611 1.08145 10.9185C0.38901 10.2261 0 9.28695 0 8.30769ZM4.99692 14.9132C5.74763 13.7366 6.78287 12.7683 8.00692 12.0978C9.23097 11.4272 10.6043 11.0761 12 11.0769C13.169 11.0759 14.3251 11.3217 15.3925 11.7984C16.4599 12.275 17.4146 12.9717 18.1941 13.8429C18.9736 14.7141 19.5604 15.7401 19.9159 16.8537C20.2714 17.9674 20.3877 19.1435 20.2572 20.3052C20.2413 20.4496 20.1915 20.5881 20.1119 20.7095C20.0324 20.831 19.9253 20.932 19.7994 21.0043C17.4259 22.3662 14.7364 23.0809 12 23.0769C9.16308 23.0769 6.49846 22.3237 4.20062 21.0043C4.0747 20.932 3.96761 20.831 3.88805 20.7095C3.8085 20.5881 3.75872 20.4496 3.74277 20.3052C3.53607 18.418 3.97841 16.5166 4.99692 14.9145V14.9132Z" fill="#0C0D50"/>
</svg>
