<svg width="220" height="156" viewBox="0 0 220 156" fill="none" xmlns="http://www.w3.org/2000/svg">
<path fill-rule="evenodd" clip-rule="evenodd" d="M132.153 78.5104C132.102 74.8516 131.623 71.1613 130.664 67.4457C127.302 54.4064 112.301 46.0353 96.3344 44.0671C80.3744 42.0989 63.7773 46.5778 57.3807 57.9201C53.7219 64.405 53.2172 69.9942 54.7123 74.7065C56.2011 79.3936 59.7334 83.2794 64.5277 86.3074C77.895 94.7416 101.305 96.4638 111.985 92.9374C116.925 91.3036 121.75 89.3355 126.45 87.0835C123.763 101.826 113.751 115.792 100.39 128.378C71.3534 155.73 26.2933 176.491 1.75409 184.124C0.435662 184.534 -0.296161 185.934 0.113878 187.253C0.523916 188.571 1.92433 189.309 3.24276 188.899C28.2677 181.115 74.2048 159.913 103.816 132.017C119.114 117.609 130.014 101.391 131.875 84.3393C166.457 65.8623 194.857 32.3401 219.138 4.12945C220.04 3.08858 219.92 1.50514 218.873 0.603058C217.826 -0.292719 216.248 -0.179219 215.346 0.867957C192.056 27.9242 165.025 60.1092 132.153 78.5104ZM127.125 81.1915C127.314 77.0785 126.911 72.9023 125.819 68.6884C122.911 57.4029 109.544 50.7287 95.7224 49.0255C87.2503 47.9846 78.5387 48.8426 71.7068 51.8958C67.4109 53.8135 63.8717 56.5954 61.7395 60.3804C58.9386 65.345 58.333 69.5906 59.4811 73.1926C60.6292 76.8199 63.4809 79.7342 67.1964 82.0746C79.3777 89.7644 100.693 91.3983 110.414 88.1874C116.149 86.2949 121.713 83.9356 127.125 81.1915Z" fill="black"/>
</svg>
