<svg width="100" height="100" viewBox="0 0 100 100" fill="none" xmlns="http://www.w3.org/2000/svg">
<path fill-rule="evenodd" clip-rule="evenodd" d="M94.6785 31.4698C75.9099 66.3698 38.4175 80.5585 3.59528 60.9107C2.43603 60.2565 0.965988 60.6655 0.311743 61.8104C-0.342503 62.9758 0.0664445 64.4478 1.22569 65.1021C38.5504 86.181 78.8049 71.1539 98.9229 33.7597C99.5526 32.5943 99.1131 31.1221 97.9416 30.4883C96.7701 29.8749 95.3082 30.3045 94.6785 31.4698Z" fill="black"/>
<path d="M32.8991 45.9428C36.7761 45.9428 39.9191 42.7999 39.9191 38.9229C39.9191 35.0459 36.7761 31.9031 32.8991 31.9031C29.0221 31.9031 25.8793 35.0459 25.8793 38.9229C25.8793 42.7999 29.0221 45.9428 32.8991 45.9428Z" fill="black"/>
<path d="M61.9604 38.4754C65.7616 38.4754 68.8432 35.394 68.8432 31.5927C68.8432 27.7915 65.7616 24.7101 61.9604 24.7101C58.1592 24.7101 55.0778 27.7915 55.0778 31.5927C55.0778 35.394 58.1592 38.4754 61.9604 38.4754Z" fill="black"/>
</svg>
